<?xml version="1.0" standalone="no"?>
<!DOCTYPE svg PUBLIC "-//W3C//DTD SVG 20010904//EN"
 "http://www.w3.org/TR/2001/REC-SVG-20010904/DTD/svg10.dtd">
<svg version="1.0" xmlns="http://www.w3.org/2000/svg"
 width="512.000000pt" height="512.000000pt" viewBox="0 0 512.000000 512.000000"
 preserveAspectRatio="xMidYMid meet">
<metadata>
Created by potrace 1.11, written by Peter Selinger 2001-2013
</metadata>
<g transform="translate(0.000000,512.000000) scale(0.100000,-0.100000)"
fill="#000000" stroke="none">
<path d="M2315 5024 c-1018 -108 -1871 -829 -2140 -1808 -67 -247 -80 -349
-80 -656 0 -243 3 -290 23 -403 92 -510 310 -945 656 -1304 378 -393 836 -637
1383 -735 113 -20 160 -23 403 -23 307 0 409 13 656 80 835 229 1500 894 1729
1729 67 247 80 349 80 656 0 243 -3 290 -23 403 -92 510 -310 945 -656 1304
-376 392 -838 638 -1377 733 -101 18 -169 23 -369 25 -135 2 -263 1 -285 -1z
m-1185 -2081 c1 -769 3 -804 60 -919 63 -129 173 -218 314 -254 304 -78 584
95 641 396 12 62 15 205 15 775 l0 699 215 0 215 0 0 -724 c0 -603 -3 -738
-15 -812 -80 -464 -422 -734 -930 -733 -317 0 -567 94 -737 278 -94 101 -155
217 -201 380 -20 74 -21 97 -24 844 l-4 767 226 0 225 0 0 -697z m2830 52 l0
-305 305 0 305 0 0 -205 0 -205 -305 0 -305 0 0 -305 0 -305 -205 0 -205 0 0
305 0 305 -305 0 -305 0 0 205 0 205 305 0 305 0 0 305 0 305 205 0 205 0 0
-305z"/>
</g>
</svg>
